
<svg height="226" version="1.1" width="226" xmlns="http://www.w3.org/2000/svg">
	<defs>
		<linearGradient x1="0" y1="0" x2="1" y2="1" id="gradA">
			<stop offset="0%" stop-color="#61d9fb"></stop>
			<stop offset="100%" stop-color="#39cdf7"></stop>
		</linearGradient>
		<linearGradient x1="0" y1="0" x2="1" y2="1" id="gradB">
			<stop offset="0%" stop-color="#8ce3fc"></stop>
			<stop offset="100%" stop-color="#0fbbec"></stop>
		</linearGradient>
	</defs>
	<path fill="#3A739B" stroke="#3A739B" d="M103.75644772144172,24.247831719193556A12 12 0 0 1 98.00334125819128 14.283159023490908L33.10511351525221,51.7521682808064A12 12 0 1 0 33.1051135152522 72.24783171919351L172.39695702880363,152.6680150676617M103.75644772144172,24.247831719193556L38.85821997850264,61.71684097650905A12 12 0 0 1 38.85821997850264 62.283159023490875L186.89488648474781,147.75216828080644A12 12 0 0 0 181.1417800214974 158.28315902349092L116.24355227855828,195.75216828080644L116.24355227855828,185.6545164631117L172.39695702880363,152.6680150676617" stroke-alignment="inner" style="fill-rule: evenodd; stroke-width: 1.5;"></path>
	<path fill="#0FBBEC" stroke="#0FBBEC" d="M121.99665874180873,205.71684097650908L186.89488648474781,168.24783171919356A12 12 0 1 0 198.89154522655656 147.46900925731552L198.89154522655656,72.5309907426845A12 12 0 1 0 186.89488648474781 51.75216828080646L121.99665874180874,14.283159023490917A12 12 0 1 0 104.24689353674958 24.530990742684473L104.24689353674957,195.46900925731552A12 12 0 1 0 121.99665874180873 205.71684097650908M116.24355227855828,195.75216828080644L181.1417800214974,158.28315902349092A12 12 0 0 1 187.38533230005567 147.46900925731552L187.38533230005567,72.5309907426845A12 12 0 0 1 181.1417800214974 61.716840976509104L116.2435522785583,24.247831719193563A12 12 0 0 1 115.75310646325045 24.530990742684473L115.75310646325043,195.46900925731552A12 12 0 0 1 116.24355227855828 195.75216828080644" style="fill-rule: evenodd; stroke-width: 1.5;"></path>

</svg>
