<?xml version="1.0" encoding="utf-8"?>

<svg id="Scene_1_copy" image-rendering="auto" baseProfile="basic" version="1.1" x="0px" y="0px" width="1440" height="600" overflow="visible" xmlns="http://www.w3.org/2000/svg" xmlns:xlink="http://www.w3.org/1999/xlink" style="background:#0EA9D5">
	<text x="680" y="156" font-family="Arial, sans-serif" font-size="20" fill="#FFF">
		database
	</text>
	<text x="695" y="202" font-family="Arial, sans-serif" font-size="20" fill="#FFF">
		cache
	</text>
	<text x="675" y="246" font-family="Arial, sans-serif" font-size="20" fill="#FFF">
		messaging
	</text>
	<g>
		<path fill="none" stroke="#FFF" stroke-width="2" d="M341.1,243.35L341.1,233.6 341.1,229.45 0,229.45 0,243.35 125.35,243.35 212.05,243.35 258.5,243.35 299.4,243.35 299.4,283.7 313.3,283.7 313.3,243.35 341.1,243.35"/>
	</g>
	<g>

		<!-- lines from tip to icons -->
		<path fill="none" stroke="#FFF" stroke-width="2" stroke-linecap="round" stroke-linejoin="bevel" d="M1095.25,386.9L1029.85,424.6M1095.25,386.9L1157.7,422.9"/>
		<path fill="none" stroke="#FFF" stroke-width="2" stroke-linecap="square" stroke-linejoin="round" d="M1095.25,386.9L1029.85,500.1M1095.25,386.9L1095.25,537.85M1095.25,386.9L1160.65,500.1"/>
		<path fill="none" stroke="#FFF" stroke-width="2" stroke-linecap="round" stroke-linejoin="bevel" d="M348.45,386.9L283.05,424.6M348.45,386.9L410.875,422.875"/>
		<path fill="none" stroke="#FFF" stroke-width="2" stroke-linecap="square" stroke-linejoin="round" d="M348.45,386.9L283.05,500.1M348.45,386.9L348.45,537.85M348.45,386.9L413.85,500.1"/>

		<path fill="none" stroke="#FFF" stroke-width="2" d="M1440,243.35L1440,229.45 1102.6,229.45 1102.6,233.6 1102.6,243.35 1130.4,243.35 1130.4,283.7 1144.3,283.7 1144.3,243.35 1185.2,243.35 1221.3,243.35 1375.95,243.35 1440,243.35"/>
		<path fill="none" stroke="#FFF" stroke-width="2" d="M1060.9,243.35L1088.7,243.35 1088.7,229.45 1060.9,229.45 1060.9,233.6 1060.9,243.35"/>
		<path fill="none" stroke="#FFF" stroke-width="2" d="M1046.95,243.35L1046.95,229.45 813.95,229.45 813.95,243.35 944.5,243.35 978.25,243.35 1046.95,243.35"/>
		<path fill="none" stroke="#FFF" stroke-width="2" d="M382.8,243.35L382.8,233.6 382.8,229.45 355,229.45 355,243.35 382.8,243.35"/>
		<path fill="none" stroke="#FFF" stroke-width="2" d="M396.75,229.45L396.75,243.35 465.45,243.35 499.2,243.35 629.75,243.35 629.75,229.45 396.75,229.45"/>

		<path fill="none" stroke="#FFF" stroke-width="2" d="M412.4,322.15L412.4,291.5 284.55,291.5 284.55,322.15 348.45,386.9 412.4,322.15"/>
		<path fill="none" stroke="#FFF" stroke-width="2" d="M412.4,291.5L412.4,285.3 284.55,285.3 284.55,291.5 412.4,291.5"/>
		<path fill="none" stroke="#FFF" stroke-width="2" d="M1031.3,322.15L1095.25,386.9 1159.15,322.15 1159.15,291.5 1031.3,291.5 1031.3,322.15"/>
		<path fill="none" stroke="#FFF" stroke-width="2" d="M1031.3,285.3L1031.3,291.5 1159.15,291.5 1159.15,285.3 1031.3,285.3"/>
	</g>
	<g>
		<!-- Icons -->
		<path fill="#fff" d="M1176.8,438.7L1176.8,427.75Q1176.8,427.1 1176.3,426.65 1175.85,426.15 1175.15,426.15L1166.8,426.15Q1166.15,426.15 1165.65,426.65 1165.2,427.1 1165.2,427.75L1165.2,438.7Q1165.2,439.35 1165.65,439.85 1166.15,440.3 1166.8,440.3L1175.15,440.3Q1175.85,440.3 1176.3,439.85 1176.8,439.35 1176.8,438.7 M1175.5,437.4Q1175.5,437.7 1175.15,437.7L1166.8,437.7Q1166.5,437.7 1166.5,437.4L1166.5,427.75Q1166.5,427.45 1166.8,427.45L1175.15,427.45Q1175.5,427.45 1175.5,427.75L1175.5,437.4 M1171.6,439Q1171.6,439.3 1171.45,439.45 1171.25,439.65 1171,439.65 1170.7,439.65 1170.55,439.45 1170.35,439.3 1170.35,439 1170.35,438.75 1170.55,438.55 1170.7,438.4 1171,438.4 1171.25,438.4 1171.45,438.55 1171.6,438.75 1171.6,439"/>
		<path fill="#fff" d="M1176.45,521.55L1176.45,511.25Q1176.45,510.75 1176.1,510.35 1175.7,510 1175.15,510L1170.05,510Q1169.5,510 1169.15,510.35 1168.75,510.75 1168.75,511.25L1168.75,521.55Q1168.75,522.1 1169.15,522.45 1169.5,522.85 1170.05,522.85L1175.15,522.85Q1175.7,522.85 1176.1,522.45 1176.45,522.1 1176.45,521.55 M1175.5,519.95Q1175.5,520.25 1175.15,520.25L1170.05,520.25Q1169.7,520.25 1169.7,519.95L1169.7,512.9Q1169.7,512.55 1170.05,512.55L1175.15,512.55Q1175.5,512.55 1175.5,512.9L1175.5,519.95 M1173.6,511.45Q1173.6,511.6 1173.4,511.6L1171.8,511.6Q1171.65,511.6 1171.65,511.45 1171.65,511.25 1171.8,511.25L1173.4,511.25Q1173.6,511.25 1173.6,511.45 M1173.15,522.15Q1172.95,522.35 1172.6,522.35 1172.25,522.35 1172.05,522.15 1171.8,521.9 1171.8,521.55 1171.8,521.25 1172.05,521 1172.25,520.75 1172.6,520.75 1172.95,520.75 1173.15,521 1173.4,521.25 1173.4,521.55 1173.4,521.9 1173.15,522.15"/>
		<path fill="#fff" d="M1021.7,427.35Q1021.25,426.9 1020.55,426.9L1004.5,426.9Q1003.85,426.9 1003.35,427.35 1002.9,427.8 1002.9,428.45L1002.9,439.4Q1002.9,440.05 1003.35,440.55 1003.85,441 1004.5,441L1010,441Q1010,441.5 1009.65,442.15 1009.3,442.8 1009.3,442.95 1009.3,443.2 1009.5,443.4 1009.7,443.6 1010,443.6L1015.1,443.6Q1015.4,443.6 1015.55,443.4 1015.75,443.2 1015.75,442.95 1015.75,442.85 1015.45,442.15 1015.1,441.5 1015.1,441L1020.55,441Q1021.25,441 1021.7,440.55 1022.2,440.05 1022.2,439.4L1022.2,428.45Q1022.2,427.8 1021.7,427.35 M1020.9,428.45L1020.9,436.85Q1020.9,437.15 1020.55,437.15L1004.5,437.15Q1004.2,437.15 1004.2,436.85L1004.2,428.45Q1004.2,428.15 1004.5,428.15L1020.55,428.15Q1020.9,428.15 1020.9,428.45"/>
		<path fill="#fff" d="M1024.85,510.45Q1024.35,510 1023.7,510L1012.75,510Q1012.1,510 1011.65,510.45 1011.2,510.95 1011.2,511.6L1011.2,518.7Q1011.2,519.35 1011.65,519.8 1012.1,520.25 1012.75,520.25L1023.7,520.25Q1024.35,520.25 1024.85,519.8 1025.3,519.35 1025.3,518.7L1025.3,511.6Q1025.3,510.95 1024.85,510.45 M1024,511.6L1024,518.7Q1024,519 1023.7,519L1012.75,519Q1012.45,519 1012.45,518.7L1012.45,511.6Q1012.45,511.25 1012.75,511.25L1023.7,511.25Q1024,511.25 1024,511.6"/>
		<path fill="#fff" d="M1026.25,522.85Q1026.95,522.85 1027.4,522.55 1027.9,522.3 1027.9,521.9L1027.9,520.95 1008.6,520.95 1008.6,521.9Q1008.6,522.3 1009.05,522.55 1009.55,522.85 1010.2,522.85L1026.25,522.85 M1019.05,521.9L1017.45,521.9Q1017.25,521.9 1017.25,521.75 1017.25,521.55 1017.45,521.55L1019.05,521.55Q1019.2,521.55 1019.2,521.75 1019.2,521.9 1019.05,521.9"/>
		<path fill="#fff" d="M1087.8,564.6Q1088.3,565.1 1088.95,565.1L1102.45,565.1Q1103.1,565.1 1103.6,564.6 1104.05,564.15 1104.05,563.45L1104.05,551.25Q1104.05,550.6 1103.6,550.15 1103.1,549.65 1102.45,549.65L1088.95,549.65Q1088.3,549.65 1087.8,550.15 1087.35,550.6 1087.35,551.25L1087.35,563.45Q1087.35,564.15 1087.8,564.6 M1088.65,552.2L1095.05,552.2 1095.05,563.8 1088.95,563.8Q1088.65,563.8 1088.65,563.45L1088.65,552.2 M1102.75,552.2L1102.75,563.45Q1102.75,563.8 1102.45,563.8L1096.35,563.8 1096.35,552.2 1102.75,552.2"/>
		<path fill="#fff" d="M257.7,426.9Q257.05,426.9 256.55,427.35 256.1,427.8 256.1,428.45L256.1,439.4Q256.1,440.05 256.55,440.55 257.05,441 257.7,441L263.2,441Q263.2,441.5 262.85,442.15 262.5,442.8 262.5,442.95 262.5,443.2 262.7,443.4 262.9,443.6 263.2,443.6L268.3,443.6Q268.6,443.6 268.75,443.4 268.95,443.2 268.95,442.95 268.95,442.85 268.65,442.15 268.3,441.5 268.3,441L273.75,441Q274.45,441 274.9,440.55 275.4,440.05 275.4,439.4L275.4,428.45Q275.4,427.8 274.9,427.35 274.45,426.9 273.75,426.9L257.7,426.9 M257.7,428.15L273.75,428.15Q274.1,428.15 274.1,428.45L274.1,436.85Q274.1,437.15 273.75,437.15L257.7,437.15Q257.4,437.15 257.4,436.85L257.4,428.45Q257.4,428.15 257.7,428.15"/>
		<path fill="#fff" d="M264.85,510.45Q264.4,510.95 264.4,511.6L264.4,518.7Q264.4,519.35 264.85,519.8 265.3,520.25 265.95,520.25L276.9,520.25Q277.55,520.25 278.05,519.8 278.5,519.35 278.5,518.7L278.5,511.6Q278.5,510.95 278.05,510.45 277.55,510 276.9,510L265.95,510Q265.3,510 264.85,510.45 M265.65,511.6Q265.65,511.25 265.95,511.25L276.9,511.25Q277.2,511.25 277.2,511.6L277.2,518.7Q277.2,519 276.9,519L265.95,519Q265.65,519 265.65,518.7L265.65,511.6"/>
		<path fill="#fff" d="M261.8,521.9Q261.8,522.3 262.25,522.55 262.75,522.85 263.4,522.85L279.45,522.85Q280.15,522.85 280.6,522.55 281.1,522.3 281.1,521.9L281.1,520.95 261.8,520.95 261.8,521.9 M272.25,521.9L270.65,521.9Q270.45,521.9 270.45,521.75 270.45,521.55 270.65,521.55L272.25,521.55Q272.4,521.55 272.4,521.75 272.4,521.9 272.25,521.9"/>
		<path fill="#fff" d="M418.85,426.65Q418.4,427.1 418.4,427.75L418.4,438.7Q418.4,439.35 418.85,439.85 419.35,440.3 420,440.3L428.35,440.3Q429.05,440.3 429.5,439.85 430,439.35 430,438.7L430,427.75Q430,427.1 429.5,426.65 429.05,426.15 428.35,426.15L420,426.15Q419.35,426.15 418.85,426.65 M420,427.45L428.35,427.45Q428.7,427.45 428.7,427.75L428.7,437.4Q428.7,437.7 428.35,437.7L420,437.7Q419.7,437.7 419.7,437.4L419.7,427.75Q419.7,427.45 420,427.45 M424.8,439Q424.8,439.3 424.65,439.45 424.45,439.65 424.2,439.65 423.9,439.65 423.75,439.45 423.55,439.3 423.55,439 423.55,438.75 423.75,438.55 423.9,438.4 424.2,438.4 424.45,438.4 424.65,438.55 424.8,438.75 424.8,439"/>
		<path fill="#fff" d="M356.8,550.15Q356.3,549.65 355.65,549.65L342.15,549.65Q341.5,549.65 341,550.15 340.55,550.6 340.55,551.25L340.55,563.45Q340.55,564.15 341,564.6 341.5,565.1 342.15,565.1L355.65,565.1Q356.3,565.1 356.8,564.6 357.25,564.15 357.25,563.45L357.25,551.25Q357.25,550.6 356.8,550.15 M355.65,563.8L349.55,563.8 349.55,552.2 355.95,552.2 355.95,563.45Q355.95,563.8 355.65,563.8 M348.25,563.8L342.15,563.8Q341.85,563.8 341.85,563.45L341.85,552.2 348.25,552.2 348.25,563.8"/>
		<path fill="#fff" d="M429.3,510.35Q428.9,510 428.35,510L423.25,510Q422.7,510 422.35,510.35 421.95,510.75 421.95,511.25L421.95,521.55Q421.95,522.1 422.35,522.45 422.7,522.85 423.25,522.85L428.35,522.85Q428.9,522.85 429.3,522.45 429.65,522.1 429.65,521.55L429.65,511.25Q429.65,510.75 429.3,510.35 M426.8,511.45Q426.8,511.6 426.6,511.6L425,511.6Q424.85,511.6 424.85,511.45 424.85,511.25 425,511.25L426.6,511.25Q426.8,511.25 426.8,511.45 M428.7,512.9L428.7,519.95Q428.7,520.25 428.35,520.25L423.25,520.25Q422.9,520.25 422.9,519.95L422.9,512.9Q422.9,512.55 423.25,512.55L428.35,512.55Q428.7,512.55 428.7,512.9 M426.35,522.15Q426.15,522.35 425.8,522.35 425.45,522.35 425.25,522.15 425,521.9 425,521.55 425,521.25 425.25,521 425.45,520.75 425.8,520.75 426.15,520.75 426.35,521 426.6,521.25 426.6,521.55 426.6,521.9 426.35,522.15"/>
	</g>
	<g>
		<use xlink:href="#info-light" transform="matrix(1 0 0 1 331.55 186.7)" opacity="0">
			<animateTransform attributeName="transform" additive="replace" type="translate" repeatCount="indefinite" dur="5.875s" keyTimes="0;0.206;0.227;0.241;0.291;0.411;1" values="272.44,516.84;272.44,516.84;272.436,516.836;272.427,516.827;347.45,386.9;347.55,202.7;347.55,202.7"/>
			<animateTransform attributeName="transform" additive="sum" type="scale" repeatCount="indefinite" dur="5.875s" keyTimes="0;0.206;0.227;0.241;0.291;1" values="1.437,1.437;1.437,1.437;1.693,1.693;1.064,1.064;1,1;1,1"/>
			<animateTransform attributeName="transform" additive="sum" type="translate" repeatCount="indefinite" dur="5.875s" keyTimes="0;1" values="-16,-16;-16,-16"/>
			<animate attributeName="opacity" repeatCount="indefinite" dur="5.875s" keyTimes="0;0.206;0.227;0.411;0.44;1" values="0;0;1;1;0;0"/>
		</use>
		<animate attributeName="display" repeatCount="indefinite" dur="5.875s" keyTimes="0;0.206;1" values="none;inline;none"/>
	</g>
	<g style="display:none;">
		<use xlink:href="#info-light" transform="matrix(1 0 0 1 290.05 227.7)" opacity="0">
			<animateTransform attributeName="transform" additive="replace" type="translate" repeatCount="indefinite" dur="5.875s" keyTimes="0;0.426;0.454;0.489;1" values="306.05,287.75;306.05,287.75;306.05,287.7;306.05,243.7;306.05,243.7"/>
			<animateTransform attributeName="transform" additive="sum" type="scale" repeatCount="indefinite" dur="5.875s" keyTimes="0;0.426;0.454;1" values="1,0.25;1,0.25;1,1;1,1"/>
			<animateTransform attributeName="transform" additive="sum" type="translate" repeatCount="indefinite" dur="5.875s" keyTimes="0;1" values="-16,-16;-16,-16"/>
			<animate attributeName="opacity" repeatCount="indefinite" dur="5.875s" keyTimes="0;0.426;0.454;0.489;0.511;1" values="0;0;1;1;0;0"/>
		</use>
		<animate attributeName="display" repeatCount="indefinite" dur="5.875s" keyTimes="0;0.426;0.518;1" values="none;inline;none;none"/>
	</g>
	<g style="display:none;">
		<use xlink:href="#info-light" transform="matrix(1.563 0 0 1.563 400.55 491.7)" opacity="0">
			<animateTransform attributeName="transform" additive="replace" type="translate" repeatCount="indefinite" dur="5.875s" keyTimes="0;0.426;0.454;0.489;0.518;0.603;1" values="286.05,287.75;286.05,287.75;286.05,287.7;286.05,349.7;348.55,386.7;425.55,516.7;425.55,516.7" keySplines="0 0 1 1;0 0 1 1;0 0 1 1;0 0 1 1;.25 .5 .5 1;0 0 1 1" calcMode="spline"/>
			<animateTransform attributeName="transform" additive="sum" type="scale" repeatCount="indefinite" dur="5.875s" keyTimes="0;0.426;0.454;0.603;0.631;1" values="1,0.25;1,0.25;1,1;1,1;1.563,1.563;1.563,1.563" keySplines="0 0 1 1;0 0 1 1;0 0 1 1;0 0 1 1;.25 .5 .5 1" calcMode="spline"/>
			<animateTransform attributeName="transform" additive="sum" type="translate" repeatCount="indefinite" dur="5.875s" keyTimes="0;1" values="-16,-16;-16,-16" keySplines="0 0 1 1" calcMode="spline"/>
			<animate attributeName="opacity" repeatCount="indefinite" dur="5.875s" keyTimes="0;0.426;0.454;0.631;0.702;1" values="0;0;1;1;0;0" keySplines="0 0 1 1;0 0 1 1;0 0 1 1;.25 .5 .5 1;.1 .1 .9 .9" calcMode="spline"/>
		</use>
		<animate attributeName="display" repeatCount="indefinite" dur="5.875s" keyTimes="0;0.426;0.887;1" values="none;inline;none;none"/>
	</g>
	<g style="display:none;">
		<use xlink:href="#info-light" transform="matrix(1.625 0 0 1.625 398.55 407.7)" opacity="0">
			<animateTransform attributeName="transform" additive="replace" type="translate" repeatCount="indefinite" dur="5.875s" keyTimes="0;0.426;0.454;0.489;0.518;0.603;1" values="412.55,287.75;412.55,287.75;412.55,287.7;412.55,349.7;348.55,386.7;424.55,433.7;424.55,433.7" keySplines="0 0 1 1;0 0 1 1;0 0 1 1;0 0 1 1;.25 .5 .5 1;0 0 1 1" calcMode="spline"/>
			<animateTransform attributeName="transform" additive="sum" type="scale" repeatCount="indefinite" dur="5.875s" keyTimes="0;0.426;0.454;0.603;0.631;1" values="1,0.25;1,0.25;1,1;1,1;1.625,1.625;1.625,1.625" keySplines="0 0 1 1;0 0 1 1;0 0 1 1;0 0 1 1;.25 .5 .5 1" calcMode="spline"/>
			<animateTransform attributeName="transform" additive="sum" type="translate" repeatCount="indefinite" dur="5.875s" keyTimes="0;1" values="-16,-16;-16,-16" keySplines="0 0 1 1" calcMode="spline"/>
			<animate attributeName="opacity" repeatCount="indefinite" dur="5.875s" keyTimes="0;0.426;0.454;0.631;0.702;1" values="0;0;1;1;0;0" keySplines="0 0 1 1;0 0 1 1;0 0 1 1;.25 .5 .5 1;.1 .1 .9 .9" calcMode="spline"/>
		</use>
		<animate attributeName="display" repeatCount="indefinite" dur="5.875s" keyTimes="0;0.426;0.887;1" values="none;inline;none;none"/>
	</g>
	<g style="display:none;">
		<use xlink:href="#info-light" transform="matrix(1.494 0 0 1.494 241.65 410.8)" opacity="0">
			<animateTransform attributeName="transform" additive="replace" type="translate" repeatCount="indefinite" dur="5.875s" keyTimes="0;0.426;0.454;0.489;0.518;0.603;1" values="286.05,287.75;286.05,287.75;286.05,287.7;286.05,322.7;348.55,386.7;265.55,434.7;265.55,434.7" keySplines="0 0 1 1;0 0 1 1;0 0 1 1;0 0 1 1;.25 .5 .5 1;0 0 1 1" calcMode="spline"/>
			<animateTransform attributeName="transform" additive="sum" type="scale" repeatCount="indefinite" dur="5.875s" keyTimes="0;0.426;0.454;0.603;0.631;1" values="1,0.25;1,0.25;1,1;1,1;1.494,1.494;1.494,1.494" keySplines="0 0 1 1;0 0 1 1;0 0 1 1;0 0 1 1;.25 .5 .5 1" calcMode="spline"/>
			<animateTransform attributeName="transform" additive="sum" type="translate" repeatCount="indefinite" dur="5.875s" keyTimes="0;1" values="-16,-16;-16,-16" keySplines="0 0 1 1" calcMode="spline"/>
			<animate attributeName="opacity" repeatCount="indefinite" dur="5.875s" keyTimes="0;0.426;0.454;0.631;0.702;1" values="0;0;1;1;0;0" keySplines="0 0 1 1;0 0 1 1;0 0 1 1;.25 .5 .5 1;.1 .1 .9 .9" calcMode="spline"/>
		</use>
		<animate attributeName="display" repeatCount="indefinite" dur="5.875s" keyTimes="0;0.426;0.887;1" values="none;inline;none;none"/>
	</g>
	<g style="display:none;">
		<use xlink:href="#info-light" transform="matrix(1.688 0 0 1.688 245.55 489.7)" opacity="0">
			<animateTransform attributeName="transform" additive="replace" type="translate" repeatCount="indefinite" dur="5.875s" keyTimes="0;0.426;0.454;0.489;0.518;0.603;1" values="412.55,287.75;412.55,287.75;412.55,287.7;412.55,322.7;348.55,386.7;272.55,516.7;272.55,516.7" keySplines="0 0 1 1;0 0 1 1;0 0 1 1;0 0 1 1;.25 .5 .5 1;0 0 1 1" calcMode="spline"/>
			<animateTransform attributeName="transform" additive="sum" type="scale" repeatCount="indefinite" dur="5.875s" keyTimes="0;0.426;0.454;0.603;0.631;1" values="1,0.25;1,0.25;1,1;1,1;1.688,1.688;1.688,1.688" keySplines="0 0 1 1;0 0 1 1;0 0 1 1;0 0 1 1;.25 .5 .5 1" calcMode="spline"/>
			<animateTransform attributeName="transform" additive="sum" type="translate" repeatCount="indefinite" dur="5.875s" keyTimes="0;1" values="-16,-16;-16,-16" keySplines="0 0 1 1" calcMode="spline"/>
			<animate attributeName="opacity" repeatCount="indefinite" dur="5.875s" keyTimes="0;0.426;0.454;0.631;0.702;1" values="0;0;1;1;0;0" keySplines="0 0 1 1;0 0 1 1;0 0 1 1;.25 .5 .5 1;.1 .1 .9 .9" calcMode="spline"/>
		</use>
		<animate attributeName="display" repeatCount="indefinite" dur="5.875s" keyTimes="0;0.426;0.887;1" values="none;inline;none;none"/>
	</g>
	<g style="display:none;">
		<use xlink:href="#info-light" transform="matrix(1.498 0 0 1.498 324.6 532.75)" opacity="0">
			<animateTransform attributeName="transform" additive="replace" type="translate" repeatCount="indefinite" dur="5.875s" keyTimes="0;0.426;0.454;0.518;0.603;0.631;1" values="348.55,287.75;348.55,287.75;348.55,287.7;348.55,386.7;348.55,556.7;348.494,556.719;348.494,556.719" keySplines="0 0 1 1;0 0 1 1;0 0 1 1;.25 .5 .5 1;0 0 1 1;.25 .5 .5 1" calcMode="spline"/>
			<animateTransform attributeName="transform" additive="sum" type="scale" repeatCount="indefinite" dur="5.875s" keyTimes="0;0.426;0.454;0.603;0.631;1" values="1,0.25;1,0.25;1,1;1,1;1.498,1.498;1.498,1.498" keySplines="0 0 1 1;0 0 1 1;0 0 1 1;0 0 1 1;.25 .5 .5 1" calcMode="spline"/>
			<animateTransform attributeName="transform" additive="sum" type="translate" repeatCount="indefinite" dur="5.875s" keyTimes="0;0.603;0.631;1" values="-16,-16;-16,-16;-15.95,-16;-15.95,-16" keySplines="0 0 1 1;0 0 1 1;.25 .5 .5 1" calcMode="spline"/>
			<animate attributeName="opacity" repeatCount="indefinite" dur="5.875s" keyTimes="0;0.426;0.454;0.631;0.702;1" values="0;0;1;1;0;0" keySplines="0 0 1 1;0 0 1 1;0 0 1 1;.25 .5 .5 1;.1 .1 .9 .9" calcMode="spline"/>
		</use>
		<animate attributeName="display" repeatCount="indefinite" dur="5.875s" keyTimes="0;0.426;0.887;1" values="none;inline;none;none"/>
	</g>
	<g style="display:none;">
		<use xlink:href="#info-light" transform="matrix(-1 0 0 1 1153.45 271.7)" opacity="1">
			<animateTransform attributeName="transform" additive="replace" type="translate" repeatCount="indefinite" dur="5.875s" keyTimes="0;0.454;0.511;0.546;0.589;1" values="1137.458,236.75;1137.458,236.75;1137.438,236.75;1137.45,237.7;1137.45,287.7;1137.45,287.7" keySplines=".25 .5 .5 1;.25 .5 .5 1;0 0 1 1;0 0 1 1;0 0 1 1" calcMode="spline"/>
			<animateTransform attributeName="transform" additive="sum" type="skewY" repeatCount="indefinite" dur="5.875s" keyTimes="0;1" values="180;180" keySplines=".25 .5 .5 1" calcMode="spline"/>
			<animateTransform attributeName="transform" additive="sum" type="scale" repeatCount="indefinite" dur="5.875s" keyTimes="0;0.454;0.511;0.546;1" values="12.018,0.25;12.018,0.25;19.004,0.456;1,1;1,1" keySplines=".25 .5 .5 1;.25 .5 .5 1;0 0 1 1;0 0 1 1" calcMode="spline"/>
			<animateTransform attributeName="transform" additive="sum" type="scale" repeatCount="indefinite" dur="5.875s" keyTimes="0;1" values="-1,1;-1,1" keySplines="0 0 1 1" calcMode="spline"/>
			<animateTransform attributeName="transform" additive="sum" type="translate" repeatCount="indefinite" dur="5.875s" keyTimes="0;1" values="-16,-16;-16,-16" keySplines=".25 .5 .5 1" calcMode="spline"/>
			<animate attributeName="opacity" repeatCount="indefinite" dur="5.875s" keyTimes="0;0.454;0.511;1" values="0;0;1;1" keySplines=".25 .5 .5 1;.25 .5 .5 1;0 0 1 1" calcMode="spline"/>
		</use>
		<animate attributeName="display" repeatCount="indefinite" dur="5.875s" keyTimes="0;0.454;0.596;1" values="none;inline;none;none"/>
	</g>
	<g>
		<use xlink:href="#info-light" transform="matrix(-1.5 0 0 1.5 1042.95 492.7)" opacity="0">
			<animateTransform attributeName="transform" additive="replace" type="translate" repeatCount="indefinite" dur="5.875s" keyTimes="0;0.589;0.617;0.652;0.681;0.766;1" values="1157.45,287.75;1157.45,287.75;1157.45,287.7;1157.45,349.7;1094.95,386.7;1018.95,516.7;1018.95,516.7" keySplines="0 0 1 1;0 0 1 1;0 0 1 1;0 0 1 1;.25 .5 .5 1;0 0 1 1" calcMode="spline"/>
			<animateTransform attributeName="transform" additive="sum" type="skewY" repeatCount="indefinite" dur="5.875s" keyTimes="0;1" values="180;180" keySplines="0 0 1 1" calcMode="spline"/>
			<animateTransform attributeName="transform" additive="sum" type="scale" repeatCount="indefinite" dur="5.875s" keyTimes="0;0.589;0.617;0.766;0.794;1" values="1,0.25;1,0.25;1,1;1,1;1.5,1.5;1.5,1.5" keySplines="0 0 1 1;0 0 1 1;0 0 1 1;0 0 1 1;.25 .5 .5 1" calcMode="spline"/>
			<animateTransform attributeName="transform" additive="sum" type="scale" repeatCount="indefinite" dur="5.875s" keyTimes="0;1" values="-1,1;-1,1" keySplines="0 0 1 1" calcMode="spline"/>
			<animateTransform attributeName="transform" additive="sum" type="translate" repeatCount="indefinite" dur="5.875s" keyTimes="0;1" values="-16,-16;-16,-16" keySplines="0 0 1 1" calcMode="spline"/>
			<animate attributeName="opacity" repeatCount="indefinite" dur="5.875s" keyTimes="0;0.589;0.617;0.794;0.865;1" values="0;0;1;1;0;0" keySplines="0 0 1 1;0 0 1 1;0 0 1 1;.25 .5 .5 1;.1 .1 .9 .9" calcMode="spline"/>
		</use>
		<animate attributeName="display" repeatCount="indefinite" dur="5.875s" keyTimes="0;0.589;1" values="none;inline;none"/>
	</g>
	<g>
		<use xlink:href="#info-light" transform="matrix(-1.531 0 0 1.531 1037.45 409.2)" opacity="0">
			<animateTransform attributeName="transform" additive="replace" type="translate" repeatCount="indefinite" dur="5.875s" keyTimes="0;0.589;0.617;0.652;0.681;0.766;1" values="1030.95,287.75;1030.95,287.75;1030.95,287.7;1030.95,349.7;1094.95,386.7;1012.95,433.7;1012.95,433.7" keySplines="0 0 1 1;0 0 1 1;0 0 1 1;0 0 1 1;.25 .5 .5 1;0 0 1 1" calcMode="spline"/>
			<animateTransform attributeName="transform" additive="sum" type="skewY" repeatCount="indefinite" dur="5.875s" keyTimes="0;1" values="180;180" keySplines="0 0 1 1" calcMode="spline"/>
			<animateTransform attributeName="transform" additive="sum" type="scale" repeatCount="indefinite" dur="5.875s" keyTimes="0;0.589;0.617;0.766;0.794;1" values="1,0.25;1,0.25;1,1;1,1;1.531,1.531;1.531,1.531" keySplines="0 0 1 1;0 0 1 1;0 0 1 1;0 0 1 1;.25 .5 .5 1" calcMode="spline"/>
			<animateTransform attributeName="transform" additive="sum" type="scale" repeatCount="indefinite" dur="5.875s" keyTimes="0;1" values="-1,1;-1,1" keySplines="0 0 1 1" calcMode="spline"/>
			<animateTransform attributeName="transform" additive="sum" type="translate" repeatCount="indefinite" dur="5.875s" keyTimes="0;1" values="-16,-16;-16,-16" keySplines="0 0 1 1" calcMode="spline"/>
			<animate attributeName="opacity" repeatCount="indefinite" dur="5.875s" keyTimes="0;0.589;0.617;0.794;0.865;1" values="0;0;1;1;0;0" keySplines="0 0 1 1;0 0 1 1;0 0 1 1;.25 .5 .5 1;.1 .1 .9 .9" calcMode="spline"/>
		</use>
		<animate attributeName="display" repeatCount="indefinite" dur="5.875s" keyTimes="0;0.589;1" values="none;inline;none"/>
	</g>
	<g>
		<use xlink:href="#info-light" transform="matrix(-1.625 0 0 1.625 1197.95 407.7)" opacity="0">
			<animateTransform attributeName="transform" additive="replace" type="translate" repeatCount="indefinite" dur="5.875s" keyTimes="0;0.589;0.617;0.652;0.681;0.766;1" values="1157.45,287.75;1157.45,287.75;1157.45,287.7;1157.45,322.7;1094.95,386.7;1171.95,433.7;1171.95,433.7" keySplines="0 0 1 1;0 0 1 1;0 0 1 1;0 0 1 1;.25 .5 .5 1;0 0 1 1" calcMode="spline"/>
			<animateTransform attributeName="transform" additive="sum" type="skewY" repeatCount="indefinite" dur="5.875s" keyTimes="0;1" values="180;180" keySplines="0 0 1 1" calcMode="spline"/>
			<animateTransform attributeName="transform" additive="sum" type="scale" repeatCount="indefinite" dur="5.875s" keyTimes="0;0.589;0.617;0.766;0.794;1" values="1,0.25;1,0.25;1,1;1,1;1.625,1.625;1.625,1.625" keySplines="0 0 1 1;0 0 1 1;0 0 1 1;0 0 1 1;.25 .5 .5 1" calcMode="spline"/>
			<animateTransform attributeName="transform" additive="sum" type="scale" repeatCount="indefinite" dur="5.875s" keyTimes="0;1" values="-1,1;-1,1" keySplines="0 0 1 1" calcMode="spline"/>
			<animateTransform attributeName="transform" additive="sum" type="translate" repeatCount="indefinite" dur="5.875s" keyTimes="0;1" values="-16,-16;-16,-16" keySplines="0 0 1 1" calcMode="spline"/>
			<animate attributeName="opacity" repeatCount="indefinite" dur="5.875s" keyTimes="0;0.589;0.617;0.794;0.865;1" values="0;0;1;1;0;0" keySplines="0 0 1 1;0 0 1 1;0 0 1 1;.25 .5 .5 1;.1 .1 .9 .9" calcMode="spline"/>
		</use>
		<animate attributeName="display" repeatCount="indefinite" dur="5.875s" keyTimes="0;0.589;1" values="none;inline;none"/>
	</g>
	<g>
		<use xlink:href="#info-light" transform="matrix(-1.812 0 0 1.813 1201.95 487.7)" opacity="0">
			<animateTransform attributeName="transform" additive="replace" type="translate" repeatCount="indefinite" dur="5.875s" keyTimes="0;0.589;0.617;0.652;0.681;0.766;1" values="1030.95,287.75;1030.95,287.75;1030.95,287.7;1030.95,322.7;1094.95,386.7;1172.95,516.7;1172.95,516.7" keySplines="0 0 1 1;0 0 1 1;0 0 1 1;0 0 1 1;.25 .5 .5 1;0 0 1 1" calcMode="spline"/>
			<animateTransform attributeName="transform" additive="sum" type="skewY" repeatCount="indefinite" dur="5.875s" keyTimes="0;1" values="180;180" keySplines="0 0 1 1" calcMode="spline"/>
			<animateTransform attributeName="transform" additive="sum" type="scale" repeatCount="indefinite" dur="5.875s" keyTimes="0;0.589;0.617;0.766;0.794;1" values="1,0.25;1,0.25;1,1;1,1;1.813,1.813;1.813,1.813" keySplines="0 0 1 1;0 0 1 1;0 0 1 1;0 0 1 1;.25 .5 .5 1" calcMode="spline"/>
			<animateTransform attributeName="transform" additive="sum" type="scale" repeatCount="indefinite" dur="5.875s" keyTimes="0;1" values="-1,1;-1,1" keySplines="0 0 1 1" calcMode="spline"/>
			<animateTransform attributeName="transform" additive="sum" type="translate" repeatCount="indefinite" dur="5.875s" keyTimes="0;1" values="-16,-16;-16,-16" keySplines="0 0 1 1" calcMode="spline"/>
			<animate attributeName="opacity" repeatCount="indefinite" dur="5.875s" keyTimes="0;0.589;0.617;0.794;0.865;1" values="0;0;1;1;0;0" keySplines="0 0 1 1;0 0 1 1;0 0 1 1;.25 .5 .5 1;.1 .1 .9 .9" calcMode="spline"/>
		</use>
		<animate attributeName="display" repeatCount="indefinite" dur="5.875s" keyTimes="0;0.589;1" values="none;inline;none"/>
	</g>
	<g>
		<use xlink:href="#info-light" transform="matrix(-1.625 0 0 1.625 1120.95 530.7)" opacity="0">
			<animateTransform attributeName="transform" additive="replace" type="translate" repeatCount="indefinite" dur="5.875s" keyTimes="0;0.589;0.617;0.681;0.766;1" values="1094.95,287.75;1094.95,287.75;1094.95,287.7;1094.95,386.7;1094.95,556.7;1094.95,556.7" keySplines="0 0 1 1;0 0 1 1;0 0 1 1;.25 .5 .5 1;0 0 1 1" calcMode="spline"/>
			<animateTransform attributeName="transform" additive="sum" type="skewY" repeatCount="indefinite" dur="5.875s" keyTimes="0;1" values="180;180" keySplines="0 0 1 1" calcMode="spline"/>
			<animateTransform attributeName="transform" additive="sum" type="scale" repeatCount="indefinite" dur="5.875s" keyTimes="0;0.589;0.617;0.766;0.794;1" values="1,0.25;1,0.25;1,1;1,1;1.625,1.625;1.625,1.625" keySplines="0 0 1 1;0 0 1 1;0 0 1 1;0 0 1 1;.25 .5 .5 1" calcMode="spline"/>
			<animateTransform attributeName="transform" additive="sum" type="scale" repeatCount="indefinite" dur="5.875s" keyTimes="0;1" values="-1,1;-1,1" keySplines="0 0 1 1" calcMode="spline"/>
			<animateTransform attributeName="transform" additive="sum" type="translate" repeatCount="indefinite" dur="5.875s" keyTimes="0;1" values="-16,-16;-16,-16" keySplines="0 0 1 1" calcMode="spline"/>
			<animate attributeName="opacity" repeatCount="indefinite" dur="5.875s" keyTimes="0;0.589;0.617;0.794;0.865;1" values="0;0;1;1;0;0" keySplines="0 0 1 1;0 0 1 1;0 0 1 1;.25 .5 .5 1;.1 .1 .9 .9" calcMode="spline"/>
		</use>
		<animate attributeName="display" repeatCount="indefinite" dur="5.875s" keyTimes="0;0.589;1" values="none;inline;none"/>
	</g>
	<g>
		<use xlink:href="#line-glow" transform="matrix(14.555 0 0 1.005 2 227.05)" opacity="0">
			<animate attributeName="opacity" repeatCount="indefinite" dur="5.875s" keyTimes="0;0.482;0.518;0.695;1" values="0;0;1;0;0" keySplines="0 0 1 1;0 0 1 1;.25 .5 .5 1;.1 .1 .9 .9" calcMode="spline"/>
		</use>
		<animate attributeName="display" repeatCount="indefinite" dur="5.875s" keyTimes="0;0.482;1" values="none;inline;none"/>
	</g>
	<g>
		<path fill="none" stroke="#FFF" stroke-width="2" d="M1375.95,201.65L1440,201.65 1440,187.75 1060.9,187.75 1060.9,201.65 1088.7,201.65 1088.7,208.8 1088.7,229.45 1088.7,243.35 1088.7,283.15 1088.7,283.7 1102.6,283.7 1102.6,283.15 1102.6,278.15 1102.6,251.45 1102.6,243.35 1102.6,233.6 1102.6,229.45 1102.6,201.65 1185.2,201.65 1221.3,201.65 1375.95,201.65"/>
		<path fill="none" stroke="#FFF" stroke-width="2" d="M978.25,201.65L1046.95,201.65 1046.95,187.75 813.95,187.75 813.95,201.65 944.5,201.65 978.25,201.65"/>
		<path fill="none" stroke="#FFF" stroke-width="2" d="M396.75,201.65L465.45,201.65 499.2,201.65 629.75,201.65 629.75,187.75 396.75,187.75 396.75,201.65"/>
	</g>
	<g>
		<path fill="none" stroke="#FFF" stroke-width="2" d="M341.1,201.65L341.1,229.45 341.1,233.6 341.1,243.35 341.1,251.45 341.1,278.15 341.1,283.15 341.1,283.7 355,283.7 355,283.15 355,243.35 355,229.45 355,208.8 355,201.65 382.8,201.65 382.8,187.75 0,187.75 0,201.65 125.35,201.65 212.05,201.65 258.5,201.65 341.1,201.65"/>
	</g>
	<g>
		<use xlink:href="#line-glow" transform="matrix(14.555 0 0 1.005 2 185.05)" opacity="0">
			<animate attributeName="opacity" repeatCount="indefinite" dur="5.875s" keyTimes="0;0.411;0.44;0.525;1" values="0;0;1;0;0"/>
		</use>
		<animate attributeName="display" repeatCount="indefinite" dur="5.875s" keyTimes="0;0.411;1" values="none;inline;none"/>
	</g>
	<g>
		<path fill="none" stroke="#FFF" stroke-width="2" d="M1440,159.9L1440,146 813.95,146 813.95,159.9 944.5,159.9 978.25,159.9 1046.95,159.9 1046.95,187.75 1046.95,201.65 1046.95,229.45 1046.95,243.35 1046.95,283.15 1046.95,283.7 1060.9,283.7 1060.9,283.15 1060.9,278.15 1060.9,251.45 1060.9,243.35 1060.9,233.6 1060.9,229.45 1060.9,208.8 1060.9,201.65 1060.9,187.75 1060.9,175.35 1060.9,159.9 1185.2,159.9 1221.3,159.9 1375.95,159.9 1440,159.9"/>
	</g>
	<g>
		<path fill="none" stroke="#FFF" stroke-width="2" d="M629.75,159.9L629.75,146 0,146 0,159.9 125.35,159.9 212.05,159.9 258.5,159.9 382.8,159.9 382.8,175.35 382.8,187.75 382.8,201.65 382.8,208.8 382.8,229.45 382.8,233.6 382.8,243.35 382.8,251.45 382.8,278.15 382.8,283.15 382.8,283.7 396.75,283.7 396.75,283.15 396.75,243.35 396.75,229.45 396.75,201.65 396.75,187.75 396.75,159.9 465.45,159.9 499.2,159.9 629.75,159.9"/>
	</g>
	<g>
		<use xlink:href="#info-light" transform="matrix(1 0 0 1 374.05 142.7)" opacity="0">
			<animateTransform attributeName="transform" additive="replace" type="translate" repeatCount="indefinite" dur="5.875s" keyTimes="0;0.603;0.631;0.887;1" values="390.05,287.75;390.05,287.75;390.05,287.7;390.05,158.7;390.05,158.7" keySplines="0 0 1 1;0 0 1 1;.255 .5 .51 1;0 0 1 1" calcMode="spline"/>
			<animateTransform attributeName="transform" additive="sum" type="scale" repeatCount="indefinite" dur="5.875s" keyTimes="0;0.603;0.631;1" values="1,0.25;1,0.25;1,1;1,1" keySplines="0 0 1 1;0 0 1 1;.255 .5 .51 1" calcMode="spline"/>
			<animateTransform attributeName="transform" additive="sum" type="translate" repeatCount="indefinite" dur="5.875s" keyTimes="0;1" values="-16,-16;-16,-16" keySplines="0 0 1 1" calcMode="spline"/>
			<animate attributeName="opacity" repeatCount="indefinite" dur="5.875s" keyTimes="0;0.603;0.631;0.887;0.915;1" values="0;0;1;1;0;0" keySplines="0 0 1 1;0 0 1 1;.255 .5 .51 1;0 0 1 1;.1 .1 .9 .9" calcMode="spline"/>
		</use>
		<animate attributeName="display" repeatCount="indefinite" dur="5.875s" keyTimes="0;0.603;1" values="none;inline;none"/>
	</g>
	<g>
		<use xlink:href="#line-glow" transform="matrix(14.555 0 0 1.005 2 143.05)" opacity="0">
			<animate attributeName="opacity" repeatCount="indefinite" dur="5.875s" keyTimes="0;0.887;0.915;0.972;1" values="0;0;1;0;0" keySplines="0 0 1 1;0 0 1 1;.25 .5 .5 1;.1 .1 .9 .9" calcMode="spline"/>
		</use>
		<animate attributeName="display" repeatCount="indefinite" dur="5.875s" keyTimes="0;0.887;1" values="none;inline;none"/>
	</g>
	<g>
		<use xlink:href="#shdw-bx" transform="matrix(0.695 0 0 0.695 355.55 187.7)"/>
		<use xlink:href="#shdw-bx" transform="matrix(-0.695 0 0 -0.695 424.2 201.65)"/>
		<use xlink:href="#shdw-bx" transform="matrix(-0.695 0 0 -0.695 424.2 243.35)"/>
		<use xlink:href="#shdw-bx" transform="matrix(-0.695 0 0 -0.695 382.3 243.35)"/>
		<use xlink:href="#shdw-bx" transform="matrix(0.695 0 0 0.695 313.75 229.4)"/>
		<use xlink:href="#shdw-bx" transform="matrix(0 0.695 -0.695 0 355.2 256.4)"/>
		<use xlink:href="#shdw-bx" transform="matrix(0 0.695 -0.695 0 313.45 256.1)"/>
		<use xlink:href="#shdw-bx" transform="matrix(0 0.695 -0.695 0 396.9 256.4)"/>
		<use xlink:href="#shdw-bx" transform="matrix(-0.695 0 0 0.695 1088.15 187.7)"/>
		<use xlink:href="#shdw-bx" transform="matrix(0.695 0 0 -0.695 1019.5 201.65)"/>
		<use xlink:href="#shdw-bx" transform="matrix(0.695 0 0 -0.695 1019.5 243.35)"/>
		<use xlink:href="#shdw-bx" transform="matrix(0.695 0 0 -0.695 1061.4 243.35)"/>
		<use xlink:href="#shdw-bx" transform="matrix(-0.695 0 0 0.695 1129.95 229.4)"/>
		<use xlink:href="#shdw-bx" transform="matrix(0 0.695 0.695 0 1088.5 256.4)"/>
		<use xlink:href="#shdw-bx" transform="matrix(0 0.695 0.695 0 1130.25 256.1)"/>
		<use xlink:href="#shdw-bx" transform="matrix(0 0.695 0.695 0 1046.8 256.4)"/>
		<use xlink:href="#shdw-bx" transform="matrix(0.695 0 0 0.695 355.55 229.4)"/>
		<use xlink:href="#shdw-bx" transform="matrix(-0.695 0 0 0.695 1088.15 229.4)"/>
	</g>
	<defs>
		<symbol id="shdw-bx" overflow="visible">
			<path fill="url(#linearGradient6)" fill-opacity="0.6" d="M39.25,20L39.25,0 0,0 0,20 39.25,20"/>
		</symbol>
		<symbol id="line-glow" overflow="visible">
			<path fill="#FFF" d="M98.95,16.5L98.95,2.5 0,2.5 0,16.5 98.95,16.5"/>
			<path fill="#FFF" fill-opacity="0.161" d="M98.95,19L0,19 0,18.5 98.95,18.5 98.95,19"/>
			<path fill="#FFF" fill-opacity="0.498" d="M98.95,18L0,18 0,17.5 98.95,17.5 98.95,18"/>
			<path fill="#FFF" fill-opacity="0.329" d="M98.95,18.5L0,18.5 0,18 98.95,18 98.95,18.5"/>
			<path fill="#FFF" fill-opacity="0.831" d="M98.95,17L0,17 0,16.5 98.95,16.5 98.95,17"/>
			<path fill="#FFF" fill-opacity="0.663" d="M98.95,17.5L0,17.5 0,17 98.95,17 98.95,17.5"/>
			<path fill="#FFF" fill-opacity="0.161" d="M98.95,0.5L0,0.5 0,0 98.95,0 98.95,0.5"/>
			<path fill="#FFF" fill-opacity="0.329" d="M98.95,1L0,1 0,0.5 98.95,0.5 98.95,1"/>
			<path fill="#FFF" fill-opacity="0.498" d="M98.95,1.5L0,1.5 0,1 98.95,1 98.95,1.5"/>
			<path fill="#FFF" fill-opacity="0.831" d="M98.95,2.5L0,2.5 0,2 98.95,2 98.95,2.5"/>
			<path fill="#FFF" fill-opacity="0.663" d="M98.95,2L0,2 0,1.5 98.95,1.5 98.95,2"/>
		</symbol>
		<symbol id="info-light" overflow="visible">
			<path fill="url(#radialGradient)" d="M32,16Q32,9.35 27.3,4.65 22.65,0 16,0 9.35,0 4.65,4.65 0,9.35 0,16 0,22.65 4.65,27.3 9.35,32 16,32 22.65,32 27.3,27.3 32,22.65 32,16"/>
		</symbol>
		<linearGradient gradientUnits="userSpaceOnUse" color-interpolation="sRGB" x1="7.224999999999994" y1="215.67499999999998" x2="224.375" y2="214.725" id="linearGradient">
			<stop stop-color="#FFF" stop-opacity="0" offset="0.02353"/>
			<stop stop-color="#FFF" stop-opacity="1" offset="1"/>
		</linearGradient>
		<linearGradient gradientUnits="userSpaceOnUse" color-interpolation="sRGB" x1="1437.375" y1="214.85" x2="1221.3249999999998" y2="214.85" id="linearGradient1">
			<stop stop-color="#FFF" stop-opacity="0" offset="0"/>
			<stop stop-color="#FFF" stop-opacity="1" offset="1"/>
		</linearGradient>
		<linearGradient gradientUnits="userSpaceOnUse" color-interpolation="sRGB" x1="1.9749999999999943" y1="235.7" x2="224.025" y2="235.7" id="linearGradient2">
			<stop stop-color="#CCC" stop-opacity="0" offset="0.02745"/>
			<stop stop-color="#CCC" stop-opacity="1" offset="1"/>
		</linearGradient>
		<linearGradient gradientUnits="userSpaceOnUse" color-interpolation="sRGB" x1="1436.375" y1="235.75" x2="1219.3249999999998" y2="235.75" id="linearGradient3">
			<stop stop-color="#CCC" stop-opacity="0" offset="0"/>
			<stop stop-color="#CCC" stop-opacity="1" offset="1"/>
		</linearGradient>
		<linearGradient gradientUnits="userSpaceOnUse" color-interpolation="sRGB" x1="1437.375" y1="256.6" x2="1219.3249999999998" y2="256.6" id="linearGradient4">
			<stop stop-color="#BBB" stop-opacity="0" offset="0"/>
			<stop stop-color="#BBB" stop-opacity="1" offset="1"/>
		</linearGradient>

		<linearGradient gradientUnits="userSpaceOnUse" color-interpolation="sRGB" x1="4.974999999999994" y1="256.55" x2="224.025" y2="256.55" id="linearGradient5">
			<stop stop-color="#BBB" stop-opacity="0" offset="0.02745"/>
			<stop stop-color="#BBB" stop-opacity="1" offset="1"/>
		</linearGradient>
		<linearGradient gradien666its="userSpaceOnUse" color-interpolation="sRGB" x1="0.02499999999999858" y1="9.95" x2="39.275" y2="9.95" id="linearGradient6">
			<stop stop-color="#666" stop-opacity="0" offset="0"/>
			<stop stop-color="#666" stop-opacity="0.027450980392156862" offset="0.65098"/>
			<stop stop-color="#666" stop-opacity="0.2" offset="0.90196"/>
			<stop stop-color="#666" stop-opacity="0.4" offset="1"/>
		</linearGradient>
		<radialGradient gradientUnits="userSpaceOnUse" color-interpolation="sRGB" r="16.180352783203126" cx="16" cy="16" fx="16" fy="16" gradientTransform="matrix(1 0 0 1 0 0)" id="radialGradient">
			<stop stop-color="#FFF" stop-opacity="1" offset="0"/>
			<stop stop-color="#FFF" stop-opacity="0" offset="1"/>
		</radialGradient>
	</defs>
</svg>